<?xml version="1.0" standalone="no"?>
<!DOCTYPE svg PUBLIC "-//W3C//DTD SVG 1.1//EN" "http://www.w3.org/Graphics/SVG/1.1/DTD/svg11.dtd">
<svg width="100%" height="100%" viewBox="0 0 45 25" version="1.1" xmlns="http://www.w3.org/2000/svg" xmlns:xlink="http://www.w3.org/1999/xlink" xml:space="preserve" style="fill-rule:evenodd;clip-rule:evenodd;stroke-linejoin:round;stroke-miterlimit:1.41421;">
    <g transform="matrix(1,0,0,1,-82.1031,-18.1759)">
        <g transform="matrix(-0.607306,0,0,0.607306,145.538,5.14988)">
            <path d="M88.117,41.346C88.117,30.364 79.201,21.449 68.22,21.449C57.238,21.449 48.323,30.364 48.323,41.346C48.323,46.782 50.547,51.982 54.479,55.736L54.292,61.243L59.402,59.182C62.143,60.537 65.161,61.243 68.22,61.243C79.201,61.243 88.117,52.327 88.117,41.346Z" style="fill:rgb(47,155,174);fill-opacity:0.498039;"/>
        </g>
        <g transform="matrix(1.05718,0,0,1.05718,57.9567,-17.4666)">
            <path d="M26.165,42.255L27.545,42.255C27.805,42.255 28.049,42.228 28.275,42.175C28.502,42.121 28.699,42.04 28.865,41.93C29.032,41.82 29.164,41.681 29.26,41.515C29.357,41.348 29.405,41.148 29.405,40.915C29.405,40.448 29.255,40.101 28.955,39.875C28.655,39.648 28.215,39.535 27.635,39.535L26.165,39.535L26.165,42.255ZM26.165,38.935L27.615,38.935C27.789,38.935 27.96,38.913 28.13,38.87C28.3,38.826 28.454,38.755 28.59,38.655C28.727,38.555 28.839,38.426 28.925,38.27C29.012,38.113 29.055,37.921 29.055,37.695C29.055,37.621 29.04,37.518 29.01,37.385C28.98,37.251 28.914,37.118 28.81,36.985C28.707,36.851 28.555,36.736 28.355,36.64C28.155,36.543 27.885,36.495 27.545,36.495L26.165,36.495L26.165,38.935ZM25.445,35.835L27.555,35.835C27.849,35.835 28.132,35.865 28.405,35.925C28.679,35.985 28.922,36.085 29.135,36.225C29.349,36.365 29.519,36.548 29.645,36.775C29.772,37.001 29.835,37.281 29.835,37.615C29.835,38.001 29.727,38.333 29.51,38.61C29.294,38.886 28.985,39.071 28.585,39.165L28.585,39.185C29.085,39.225 29.477,39.4 29.76,39.71C30.044,40.02 30.185,40.435 30.185,40.955C30.185,41.068 30.157,41.235 30.1,41.455C30.044,41.675 29.925,41.893 29.745,42.11C29.565,42.326 29.305,42.515 28.965,42.675C28.625,42.835 28.172,42.915 27.605,42.915L25.445,42.915L25.445,35.835Z" style="fill:white;fill-rule:nonzero;"/>
            <path d="M35.145,40.215C35.145,39.768 35.012,39.406 34.745,39.13C34.479,38.853 34.105,38.715 33.625,38.715C33.412,38.715 33.205,38.756 33.005,38.84C32.805,38.923 32.63,39.035 32.48,39.175C32.33,39.315 32.21,39.475 32.12,39.655C32.03,39.835 31.985,40.021 31.985,40.215L35.145,40.215ZM31.965,40.755C31.985,40.988 32.042,41.208 32.135,41.415C32.229,41.621 32.352,41.8 32.505,41.95C32.659,42.1 32.835,42.218 33.035,42.305C33.235,42.391 33.452,42.435 33.685,42.435C34.039,42.435 34.344,42.353 34.6,42.19C34.857,42.026 35.052,41.838 35.185,41.625L35.695,42.045C35.415,42.398 35.107,42.651 34.77,42.805C34.434,42.958 34.072,43.035 33.685,43.035C33.339,43.035 33.017,42.973 32.72,42.85C32.424,42.726 32.169,42.555 31.955,42.335C31.742,42.115 31.574,41.855 31.45,41.555C31.327,41.255 31.265,40.928 31.265,40.575C31.265,40.221 31.325,39.895 31.445,39.595C31.565,39.295 31.732,39.035 31.945,38.815C32.159,38.595 32.409,38.423 32.695,38.3C32.982,38.176 33.292,38.115 33.625,38.115C33.979,38.115 34.295,38.178 34.575,38.305C34.855,38.431 35.09,38.6 35.28,38.81C35.47,39.02 35.615,39.266 35.715,39.55C35.815,39.833 35.865,40.135 35.865,40.455L35.865,40.755L31.965,40.755Z" style="fill:white;fill-rule:nonzero;"/>
            <path d="M37.135,39.695C37.135,39.488 37.13,39.278 37.12,39.065C37.11,38.851 37.102,38.575 37.095,38.235L37.745,38.235L37.745,39.105L37.765,39.105C37.812,38.978 37.879,38.856 37.965,38.74C38.052,38.623 38.157,38.518 38.28,38.425C38.404,38.331 38.547,38.256 38.71,38.2C38.874,38.143 39.059,38.115 39.265,38.115C39.452,38.115 39.615,38.135 39.755,38.175L39.625,38.825C39.539,38.791 39.412,38.775 39.245,38.775C38.992,38.775 38.775,38.823 38.595,38.92C38.415,39.016 38.265,39.14 38.145,39.29C38.025,39.44 37.937,39.601 37.88,39.775C37.824,39.948 37.795,40.115 37.795,40.275L37.795,42.915L37.135,42.915L37.135,39.695Z" style="fill:white;fill-rule:nonzero;"/>
            <path d="M41.045,40.345L43.255,38.235L44.245,38.235L41.915,40.375L44.495,42.915L43.475,42.915L41.045,40.455L41.045,42.915L40.385,42.915L40.385,35.355L41.045,35.355L41.045,40.345Z" style="fill:white;fill-rule:nonzero;"/>
            <path d="M48.845,40.215C48.845,39.768 48.712,39.406 48.445,39.13C48.179,38.853 47.805,38.715 47.325,38.715C47.112,38.715 46.905,38.756 46.705,38.84C46.505,38.923 46.33,39.035 46.18,39.175C46.03,39.315 45.91,39.475 45.82,39.655C45.73,39.835 45.685,40.021 45.685,40.215L48.845,40.215ZM45.665,40.755C45.685,40.988 45.742,41.208 45.835,41.415C45.929,41.621 46.052,41.8 46.205,41.95C46.359,42.1 46.535,42.218 46.735,42.305C46.935,42.391 47.152,42.435 47.385,42.435C47.739,42.435 48.044,42.353 48.3,42.19C48.557,42.026 48.752,41.838 48.885,41.625L49.395,42.045C49.115,42.398 48.807,42.651 48.47,42.805C48.134,42.958 47.772,43.035 47.385,43.035C47.039,43.035 46.717,42.973 46.42,42.85C46.124,42.726 45.869,42.555 45.655,42.335C45.442,42.115 45.274,41.855 45.15,41.555C45.027,41.255 44.965,40.928 44.965,40.575C44.965,40.221 45.025,39.895 45.145,39.595C45.265,39.295 45.432,39.035 45.645,38.815C45.859,38.595 46.109,38.423 46.395,38.3C46.682,38.176 46.992,38.115 47.325,38.115C47.679,38.115 47.995,38.178 48.275,38.305C48.555,38.431 48.79,38.6 48.98,38.81C49.17,39.02 49.315,39.266 49.415,39.55C49.515,39.833 49.565,40.135 49.565,40.455L49.565,40.755L45.665,40.755Z" style="fill:white;fill-rule:nonzero;"/>
            <rect x="50.915" y="35.355" width="0.66" height="7.56" style="fill:white;fill-rule:nonzero;"/>
            <path d="M56.805,40.215C56.805,39.768 56.672,39.406 56.405,39.13C56.139,38.853 55.765,38.715 55.285,38.715C55.072,38.715 54.865,38.756 54.665,38.84C54.465,38.923 54.29,39.035 54.14,39.175C53.99,39.315 53.87,39.475 53.78,39.655C53.69,39.835 53.645,40.021 53.645,40.215L56.805,40.215ZM53.625,40.755C53.645,40.988 53.702,41.208 53.795,41.415C53.889,41.621 54.012,41.8 54.165,41.95C54.319,42.1 54.495,42.218 54.695,42.305C54.895,42.391 55.112,42.435 55.345,42.435C55.699,42.435 56.004,42.353 56.26,42.19C56.517,42.026 56.712,41.838 56.845,41.625L57.355,42.045C57.075,42.398 56.767,42.651 56.43,42.805C56.094,42.958 55.732,43.035 55.345,43.035C54.999,43.035 54.677,42.973 54.38,42.85C54.084,42.726 53.829,42.555 53.615,42.335C53.402,42.115 53.234,41.855 53.11,41.555C52.987,41.255 52.925,40.928 52.925,40.575C52.925,40.221 52.985,39.895 53.105,39.595C53.225,39.295 53.392,39.035 53.605,38.815C53.819,38.595 54.069,38.423 54.355,38.3C54.642,38.176 54.952,38.115 55.285,38.115C55.639,38.115 55.955,38.178 56.235,38.305C56.515,38.431 56.75,38.6 56.94,38.81C57.13,39.02 57.275,39.266 57.375,39.55C57.475,39.833 57.525,40.135 57.525,40.455L57.525,40.755L53.625,40.755Z" style="fill:white;fill-rule:nonzero;"/>
            <path d="M60.465,42.105L61.895,38.235L62.695,38.235L60.355,44.135C60.215,44.495 60.037,44.781 59.82,44.995C59.604,45.208 59.292,45.315 58.885,45.315C58.785,45.315 58.684,45.311 58.58,45.305C58.477,45.298 58.375,45.278 58.275,45.245L58.345,44.605C58.485,44.678 58.652,44.715 58.845,44.715C59.079,44.715 59.262,44.641 59.395,44.495C59.529,44.348 59.645,44.141 59.745,43.875L60.085,42.975L58.165,38.235L58.995,38.235L60.465,42.105Z" style="fill:white;fill-rule:nonzero;"/>
            <path d="M23.56,52.255L27.35,52.255L27.35,52.915L22.84,52.915L22.84,45.835L27.23,45.835L27.23,46.495L23.56,46.495L23.56,48.905L26.99,48.905L26.99,49.565L23.56,49.565L23.56,52.255Z" style="fill:white;fill-rule:nonzero;"/>
            <path d="M29.74,50.415L28.04,48.235L28.94,48.235L30.24,49.985L31.48,48.235L32.3,48.235L30.67,50.415L32.63,52.915L31.73,52.915L30.16,50.865L28.65,52.915L27.81,52.915L29.74,50.415Z" style="fill:white;fill-rule:nonzero;"/>
            <path d="M36.76,49.335C36.647,49.161 36.489,49.015 36.285,48.895C36.082,48.775 35.85,48.715 35.59,48.715C35.317,48.708 35.072,48.751 34.855,48.845C34.639,48.938 34.454,49.068 34.3,49.235C34.147,49.401 34.03,49.6 33.95,49.83C33.87,50.06 33.83,50.308 33.83,50.575C33.83,50.841 33.87,51.09 33.95,51.32C34.03,51.55 34.147,51.748 34.3,51.915C34.454,52.081 34.639,52.211 34.855,52.305C35.072,52.398 35.317,52.441 35.59,52.435C35.85,52.435 36.082,52.375 36.285,52.255C36.489,52.135 36.647,51.988 36.76,51.815L37.3,52.225C37.067,52.498 36.804,52.7 36.51,52.83C36.217,52.96 35.91,53.028 35.59,53.035C35.21,53.041 34.867,52.983 34.56,52.86C34.254,52.736 33.992,52.565 33.775,52.345C33.559,52.125 33.394,51.863 33.28,51.56C33.167,51.256 33.11,50.928 33.11,50.575C33.11,50.221 33.167,49.893 33.28,49.59C33.394,49.286 33.559,49.025 33.775,48.805C33.992,48.585 34.254,48.413 34.56,48.29C34.867,48.166 35.21,48.108 35.59,48.115C35.91,48.121 36.217,48.19 36.51,48.32C36.804,48.45 37.067,48.651 37.3,48.925L36.76,49.335Z" style="fill:white;fill-rule:nonzero;"/>
            <path d="M38.17,45.355L38.83,45.355L38.83,48.985L38.85,48.985C38.924,48.858 39.017,48.741 39.13,48.635C39.244,48.528 39.37,48.436 39.51,48.36C39.65,48.283 39.799,48.223 39.955,48.18C40.112,48.136 40.267,48.115 40.42,48.115C41.02,48.115 41.464,48.273 41.75,48.59C42.037,48.906 42.18,49.358 42.18,49.945L42.18,52.915L41.52,52.915L41.52,50.325C41.52,49.805 41.43,49.406 41.25,49.13C41.07,48.853 40.737,48.715 40.25,48.715C40.217,48.715 40.124,48.728 39.97,48.755C39.817,48.781 39.655,48.855 39.485,48.975C39.315,49.095 39.164,49.275 39.03,49.515C38.897,49.755 38.83,50.088 38.83,50.515L38.83,52.915L38.17,52.915L38.17,45.355Z" style="fill:white;fill-rule:nonzero;"/>
            <path d="M46.39,50.585C46.224,50.585 46.015,50.593 45.765,50.61C45.515,50.626 45.275,50.666 45.045,50.73C44.815,50.793 44.619,50.891 44.455,51.025C44.292,51.158 44.21,51.341 44.21,51.575C44.21,51.728 44.242,51.86 44.305,51.97C44.369,52.08 44.454,52.17 44.56,52.24C44.667,52.31 44.785,52.36 44.915,52.39C45.045,52.42 45.177,52.435 45.31,52.435C45.55,52.435 45.759,52.395 45.935,52.315C46.112,52.235 46.26,52.126 46.38,51.99C46.5,51.853 46.589,51.693 46.645,51.51C46.702,51.326 46.73,51.131 46.73,50.925L46.73,50.585L46.39,50.585ZM46.73,50.045L46.73,49.925C46.73,49.118 46.33,48.715 45.53,48.715C44.984,48.715 44.507,48.898 44.1,49.265L43.7,48.795C44.14,48.341 44.8,48.115 45.68,48.115C45.907,48.115 46.125,48.148 46.335,48.215C46.545,48.281 46.727,48.383 46.88,48.52C47.034,48.656 47.157,48.828 47.25,49.035C47.344,49.241 47.39,49.488 47.39,49.775L47.39,51.865C47.39,52.045 47.399,52.233 47.415,52.43C47.432,52.626 47.45,52.788 47.47,52.915L46.83,52.915C46.81,52.801 46.795,52.678 46.785,52.545C46.775,52.411 46.77,52.281 46.77,52.155L46.75,52.155C46.557,52.468 46.329,52.693 46.065,52.83C45.802,52.966 45.48,53.035 45.1,53.035C44.894,53.035 44.694,53.006 44.5,52.95C44.307,52.893 44.135,52.806 43.985,52.69C43.835,52.573 43.715,52.43 43.625,52.26C43.535,52.09 43.49,51.891 43.49,51.665C43.49,51.285 43.589,50.986 43.785,50.77C43.982,50.553 44.229,50.391 44.525,50.285C44.822,50.178 45.139,50.111 45.475,50.085C45.812,50.058 46.12,50.045 46.4,50.045L46.73,50.045Z" style="fill:white;fill-rule:nonzero;"/>
            <path d="M49.55,48.235C49.564,48.361 49.572,48.486 49.575,48.61C49.579,48.733 49.58,48.858 49.58,48.985L49.6,48.985C49.674,48.858 49.767,48.741 49.88,48.635C49.994,48.528 50.12,48.436 50.26,48.36C50.4,48.283 50.549,48.223 50.705,48.18C50.862,48.136 51.017,48.115 51.17,48.115C51.77,48.115 52.214,48.273 52.5,48.59C52.787,48.906 52.93,49.358 52.93,49.945L52.93,52.915L52.27,52.915L52.27,50.325C52.27,49.805 52.18,49.406 52,49.13C51.82,48.853 51.487,48.715 51,48.715C50.967,48.715 50.874,48.728 50.72,48.755C50.567,48.781 50.405,48.855 50.235,48.975C50.065,49.095 49.914,49.275 49.78,49.515C49.647,49.755 49.58,50.088 49.58,50.515L49.58,52.915L48.92,52.915L48.92,49.265C48.92,49.138 48.915,48.978 48.905,48.785C48.895,48.591 48.884,48.408 48.87,48.235L49.55,48.235Z" style="fill:white;fill-rule:nonzero;"/>
            <path d="M54.96,50.515C54.96,50.761 55.005,50.993 55.095,51.21C55.185,51.426 55.309,51.616 55.465,51.78C55.622,51.943 55.805,52.073 56.015,52.17C56.225,52.266 56.454,52.315 56.7,52.315C56.94,52.315 57.169,52.271 57.385,52.185C57.602,52.098 57.794,51.976 57.96,51.82C58.127,51.663 58.255,51.475 58.345,51.255C58.435,51.035 58.477,50.788 58.47,50.515C58.47,50.268 58.43,50.036 58.35,49.82C58.27,49.603 58.154,49.413 58,49.25C57.847,49.086 57.66,48.956 57.44,48.86C57.22,48.763 56.974,48.715 56.7,48.715C56.454,48.715 56.225,48.763 56.015,48.86C55.805,48.956 55.622,49.086 55.465,49.25C55.309,49.413 55.185,49.603 55.095,49.82C55.005,50.036 54.96,50.268 54.96,50.515ZM54.84,53.855C55.034,54.115 55.285,54.323 55.595,54.48C55.905,54.636 56.25,54.715 56.63,54.715C56.964,54.715 57.247,54.666 57.48,54.57C57.714,54.473 57.902,54.341 58.045,54.175C58.189,54.008 58.292,53.813 58.355,53.59C58.419,53.366 58.45,53.128 58.45,52.875L58.45,52.035L58.43,52.035C58.217,52.355 57.957,52.581 57.65,52.715C57.344,52.848 57.02,52.915 56.68,52.915C56.34,52.915 56.022,52.855 55.725,52.735C55.429,52.615 55.17,52.45 54.95,52.24C54.73,52.03 54.557,51.778 54.43,51.485C54.304,51.191 54.24,50.875 54.24,50.535C54.24,50.195 54.3,49.878 54.42,49.585C54.54,49.291 54.705,49.035 54.915,48.815C55.125,48.595 55.375,48.423 55.665,48.3C55.955,48.176 56.274,48.115 56.62,48.115C56.76,48.115 56.909,48.128 57.065,48.155C57.222,48.181 57.379,48.228 57.535,48.295C57.692,48.361 57.847,48.453 58,48.57C58.154,48.686 58.297,48.835 58.43,49.015L58.45,49.015L58.45,48.235L59.11,48.235L59.11,52.875C59.11,53.128 59.079,53.398 59.015,53.685C58.952,53.971 58.829,54.235 58.645,54.475C58.462,54.715 58.207,54.915 57.88,55.075C57.554,55.235 57.127,55.315 56.6,55.315C56.134,55.315 55.717,55.238 55.35,55.085C54.984,54.931 54.65,54.695 54.35,54.375L54.84,53.855Z" style="fill:white;fill-rule:nonzero;"/>
            <path d="M64.23,50.215C64.23,49.768 64.097,49.406 63.83,49.13C63.564,48.853 63.19,48.715 62.71,48.715C62.497,48.715 62.29,48.756 62.09,48.84C61.89,48.923 61.715,49.035 61.565,49.175C61.415,49.315 61.295,49.475 61.205,49.655C61.115,49.835 61.07,50.021 61.07,50.215L64.23,50.215ZM61.05,50.755C61.07,50.988 61.127,51.208 61.22,51.415C61.314,51.621 61.437,51.8 61.59,51.95C61.744,52.1 61.92,52.218 62.12,52.305C62.32,52.391 62.537,52.435 62.77,52.435C63.124,52.435 63.429,52.353 63.685,52.19C63.942,52.026 64.137,51.838 64.27,51.625L64.78,52.045C64.5,52.398 64.192,52.651 63.855,52.805C63.519,52.958 63.157,53.035 62.77,53.035C62.424,53.035 62.102,52.973 61.805,52.85C61.509,52.726 61.254,52.555 61.04,52.335C60.827,52.115 60.659,51.855 60.535,51.555C60.412,51.255 60.35,50.928 60.35,50.575C60.35,50.221 60.41,49.895 60.53,49.595C60.65,49.295 60.817,49.035 61.03,48.815C61.244,48.595 61.494,48.423 61.78,48.3C62.067,48.176 62.377,48.115 62.71,48.115C63.064,48.115 63.38,48.178 63.66,48.305C63.94,48.431 64.175,48.6 64.365,48.81C64.555,49.02 64.7,49.266 64.8,49.55C64.9,49.833 64.95,50.135 64.95,50.455L64.95,50.755L61.05,50.755Z" style="fill:white;fill-rule:nonzero;"/>
        </g>
    </g>
</svg>
