<?xml version="1.0" standalone="no"?>
<!DOCTYPE svg PUBLIC "-//W3C//DTD SVG 1.1//EN" "http://www.w3.org/Graphics/SVG/1.1/DTD/svg11.dtd">
<svg width="100%" height="100%" viewBox="0 0 29 17" version="1.1" xmlns="http://www.w3.org/2000/svg" xmlns:xlink="http://www.w3.org/1999/xlink" xml:space="preserve" style="fill-rule:evenodd;clip-rule:evenodd;stroke-linejoin:round;stroke-miterlimit:1.41421;">
    <g transform="matrix(1,0,0,1,-16.7309,-34.5833)">
        <g transform="matrix(-0.407801,0,0,0.407801,58.9095,25.8365)">
            <path d="M88.117,41.346C88.117,30.364 79.201,21.449 68.22,21.449C57.238,21.449 48.323,30.364 48.323,41.346C48.323,46.782 50.547,51.982 54.479,55.736L54.292,61.243L59.402,59.182C62.143,60.537 65.161,61.243 68.22,61.243C79.201,61.243 88.117,52.327 88.117,41.346Z" style="fill:rgb(174,207,217);"/>
        </g>
        <g transform="matrix(1,0,0,1,0,25.4121)">
            <g transform="matrix(0.261096,0,0,0.261096,12.7716,6.46971)">
                <path d="M87.206,22.845L89.523,22.845L89.523,37.493L96.972,37.493L96.972,39.562L87.123,39.562L87.123,22.845L87.206,22.845Z" style="fill:white;fill-rule:nonzero;"/>
            </g>
            <g transform="matrix(0.261096,0,0,0.261096,12.7716,6.46971)">
                <path d="M99.702,22.845L109.385,22.845L109.385,24.915L102.019,24.915L102.019,30.128L107.978,30.128L107.978,32.197L102.019,32.197L102.019,37.575L109.799,37.575L109.799,39.646L99.702,39.646L99.702,22.845Z" style="fill:white;fill-rule:nonzero;"/>
            </g>
            <g transform="matrix(0.261096,0,0,0.261096,12.7716,6.46971)">
                <path d="M113.44,39.561L122.461,22.844L125.109,22.844L116.336,39.561" style="fill:white;fill-rule:nonzero;"/>
            </g>
            <g transform="matrix(0.261096,0,0,0.261096,12.7716,6.46971)">
                <path d="M120.061,32.446L116.337,39.561L113.524,39.561L117.413,32.362L112.117,22.928L114.765,22.928L120.061,32.446Z" style="fill:white;fill-rule:nonzero;"/>
            </g>
            <g transform="matrix(0.261096,0,0,0.261096,12.7716,6.46971)">
                <path d="M58.901,22.845L61.219,22.845L61.219,29.88L63.702,29.88L67.922,22.845L70.489,22.845L65.605,30.79L65.605,30.872L70.819,39.562L68.171,39.562L63.702,31.866L61.219,31.866L61.219,39.562L58.901,39.562L58.901,22.845Z" style="fill:white;fill-rule:nonzero;"/>
            </g>
            <g transform="matrix(0.261096,0,0,0.261096,12.7716,6.46971)">
                <path d="M73.634,22.845L83.317,22.845L83.317,24.915L75.95,24.915L75.95,30.128L81.909,30.128L81.909,32.197L75.95,32.197L75.95,37.575L83.731,37.575L83.731,39.646L73.634,39.646L73.634,22.845Z" style="fill:white;fill-rule:nonzero;"/>
            </g>
            <g transform="matrix(0.261096,0,0,0.261096,12.7716,6.46971)">
                <path d="M68.171,39.561L63.04,30.872L63.702,29.961L67.923,22.928L70.489,22.928L65.606,30.872L65.606,30.956L70.819,39.561L68.171,39.561Z" style="fill:white;fill-rule:nonzero;"/>
            </g>
            <g transform="matrix(0.261096,0,0,0.261096,12.7716,6.46971)">
                <path d="M15.206,22.845L21.081,22.845C23.895,22.845 25.964,24.417 25.964,27.066C25.964,28.722 25.137,29.962 23.895,30.624L23.895,30.708C25.634,31.204 26.626,32.859 26.626,34.763C26.626,37.908 24.226,39.48 21.247,39.48L15.288,39.48L15.288,22.845L15.206,22.845ZM21.081,29.88C22.571,29.88 23.564,28.804 23.564,27.314C23.564,25.825 22.653,24.831 21.081,24.831L17.605,24.831L17.605,29.798L21.081,29.798L21.081,29.88ZM21.329,37.493C23.15,37.493 24.226,36.335 24.226,34.679C24.226,32.943 23.067,31.783 21.329,31.783L17.605,31.783L17.605,37.493L21.329,37.493Z" style="fill:white;fill-rule:nonzero;"/>
            </g>
            <g transform="matrix(0.261096,0,0,0.261096,12.7716,6.46971)">
                <path d="M30.185,22.845L39.869,22.845L39.869,24.915L32.502,24.915L32.502,30.128L38.461,30.128L38.461,32.197L32.502,32.197L32.502,37.575L40.282,37.575L40.282,39.646L30.185,39.646L30.185,22.845Z" style="fill:white;fill-rule:nonzero;"/>
            </g>
            <g transform="matrix(0.261096,0,0,0.261096,12.7716,6.46971)">
                <path d="M43.757,22.845L48.888,22.845C50.626,22.845 51.371,23.011 52.033,23.259C53.772,23.921 54.847,25.575 54.847,27.812C54.847,29.962 53.689,31.7 51.868,32.363L51.868,32.447C51.868,32.447 52.033,32.695 52.364,33.191L55.923,39.646L53.275,39.646L49.716,33.025L46.157,33.025L46.157,39.646L43.841,39.646L43.841,22.845L43.757,22.845ZM49.468,30.872C51.288,30.872 52.447,29.714 52.447,27.812C52.447,26.57 51.95,25.741 51.123,25.245C50.709,24.997 50.13,24.831 48.806,24.831L46.074,24.831L46.074,30.79L49.468,30.79L49.468,30.872Z" style="fill:white;fill-rule:nonzero;"/>
            </g>
            <g transform="matrix(0.261096,0,0,0.261096,12.7716,6.46971)">
                <path d="M106.198,42.708C109.84,42.708 111.66,44.694 111.66,44.694L110.585,46.431C110.585,46.431 108.929,44.776 106.364,44.776C102.805,44.776 100.653,47.673 100.653,51.231C100.653,55.122 103.053,57.769 106.198,57.769C108.846,57.769 110.502,55.7 110.502,55.7L110.502,53.3L108.019,53.3L108.019,51.231L112.405,51.231L112.405,59.591L110.585,59.591L110.585,58.515L110.585,57.769C110.585,57.769 108.929,59.839 105.95,59.839C101.894,59.839 98.502,56.28 98.502,51.147C98.502,46.515 101.812,42.708 106.198,42.708" style="fill:white;fill-rule:nonzero;"/>
            </g>
            <g transform="matrix(0.261096,0,0,0.261096,12.7716,6.46971)">
                <path d="M115.054,42.956L124.737,42.956L124.737,45.024L117.371,45.024L117.371,50.239L123.33,50.239L123.33,52.308L117.371,52.308L117.371,57.686L125.151,57.686L125.151,59.755L115.054,59.755L115.054,42.956Z" style="fill:white;fill-rule:nonzero;"/>
            </g>
            <g transform="matrix(0.261096,0,0,0.261096,12.7716,6.46971)">
                <path d="M78.723,54.872L73.013,54.872L71.523,59.673L69.372,59.673L74.833,42.956L77.068,42.956L82.531,59.673L80.295,59.673L78.723,54.872ZM75.91,45.272C75.91,45.272 75.577,46.763 75.329,47.673L73.675,52.97L78.226,52.97L76.572,47.673C76.24,46.763 75.91,45.272 75.91,45.272" style="fill:white;fill-rule:nonzero;"/>
            </g>
            <g transform="matrix(0.261096,0,0,0.261096,12.7716,6.46971)">
                <path d="M84.434,42.956L86.502,42.956L93.205,53.798C93.786,54.708 94.447,56.198 94.447,56.198L94.531,56.198C94.531,56.198 94.365,54.708 94.365,53.798L94.365,42.956L96.516,42.956L96.516,59.673L94.448,59.673L87.744,48.831C87.164,47.921 86.502,46.431 86.502,46.431L86.419,46.431C86.419,46.431 86.585,47.921 86.585,48.831L86.585,59.673L84.434,59.673L84.434,42.956Z" style="fill:white;fill-rule:nonzero;"/>
            </g>
            <g transform="matrix(0.261096,0,0,0.261096,12.7716,6.46971)">
                <path d="M15.164,42.956L24.847,42.956L24.847,45.024L17.481,45.024L17.481,50.239L23.44,50.239L23.44,52.308L17.481,52.308L17.481,57.686L25.261,57.686L25.261,59.755L15.164,59.755L15.164,42.956Z" style="fill:white;fill-rule:nonzero;"/>
            </g>
            <g transform="matrix(0.261096,0,0,0.261096,12.7716,6.46971)">
                <path d="M31.882,51.065L26.916,42.956L29.648,42.956L32.296,47.506C32.792,48.417 33.371,49.493 33.371,49.493L33.454,49.493C33.454,49.493 33.95,48.417 34.447,47.506L37.095,42.956L39.826,42.956L34.861,51.065L40.157,59.672L37.509,59.672L34.447,54.542C33.868,53.631 33.371,52.637 33.371,52.637L33.288,52.637C33.288,52.637 32.875,53.631 32.296,54.542L29.234,59.672L26.585,59.672L31.882,51.065Z" style="fill:white;fill-rule:nonzero;"/>
            </g>
            <g transform="matrix(0.261096,0,0,0.261096,12.7716,6.46971)">
                <path d="M47.108,42.708C50.75,42.708 52.571,44.942 52.571,44.942L51.495,46.679C51.495,46.679 49.756,44.858 47.108,44.858C43.715,44.858 41.564,47.673 41.564,51.231C41.564,54.79 43.798,57.853 47.192,57.853C50.004,57.853 51.826,55.7 51.826,55.7L52.985,57.354C52.985,57.354 50.916,60.003 47.108,60.003C42.557,60.003 39.413,56.196 39.413,51.313C39.413,46.431 42.723,42.708 47.108,42.708" style="fill:white;fill-rule:nonzero;"/>
            </g>
            <g transform="matrix(0.261096,0,0,0.261096,12.7716,6.46971)">
                <path d="M55.302,42.956L57.454,42.956L57.454,50.321L65.316,50.321L65.316,42.956L67.468,42.956L67.468,59.673L65.316,59.673L65.316,52.308L57.454,52.308L57.454,59.673L55.302,59.673L55.302,42.956Z" style="fill:white;fill-rule:nonzero;"/>
            </g>
        </g>
    </g>
</svg>
