<?xml version="1.0" standalone="no"?>
<!DOCTYPE svg PUBLIC "-//W3C//DTD SVG 1.1//EN" "http://www.w3.org/Graphics/SVG/1.1/DTD/svg11.dtd">
<svg width="100%" height="100%" viewBox="0 0 1001 1001" version="1.1" xmlns="http://www.w3.org/2000/svg" xmlns:xlink="http://www.w3.org/1999/xlink" xml:space="preserve" style="fill-rule:evenodd;clip-rule:evenodd;stroke-linejoin:round;stroke-miterlimit:1.41421;">
    <g transform="matrix(1,0,0,1,-249.5,-0)">
        <g transform="matrix(6.07288,0,0,7.69231,0,0)">
            <rect x="0" y="0" width="247" height="130" style="fill:rgb(191,10,48);"/>
        </g>
        <g id="s3" transform="matrix(6.07288,0,0,7.69231,0,0)">
            <rect id="Ws" x="0" y="10" width="247" height="10" style="fill:white;"/>
            <g id="Ws1" transform="matrix(1,0,0,1,0,20)">
                <rect x="0" y="10" width="247" height="10" style="fill:white;"/>
            </g>
            <g id="Ws2" transform="matrix(1,0,0,1,0,40)">
                <rect x="0" y="10" width="247" height="10" style="fill:white;"/>
            </g>
        </g>
        <g transform="matrix(7.69231,0,0,7.69231,0,0)">
            <rect x="0" y="0" width="98.8" height="70" style="fill:rgb(0,40,104);"/>
        </g>
        <g id="s31" transform="matrix(6.07288,0,0,7.69231,0,461.539)">
            <rect id="Ws3" x="0" y="10" width="247" height="10" style="fill:white;"/>
            <g id="Ws4" transform="matrix(1,0,0,1,0,20)">
                <rect x="0" y="10" width="247" height="10" style="fill:white;"/>
            </g>
            <g id="Ws5" transform="matrix(1,0,0,1,0,40)">
                <rect x="0" y="10" width="247" height="10" style="fill:white;"/>
            </g>
        </g>
        <g id="row">
            <g id="hrow">
                <g id="St2" transform="matrix(1,0,0,1,189.474,0)">
                    <path d="M16.043,44.195L80.801,44.195L28.409,82.266L48.419,20.671L68.429,82.266L16.043,44.195Z" style="fill:white;fill-rule:nonzero;"/>
                </g>
                <g id="St3" transform="matrix(1,0,0,1,284.211,0)">
                    <path d="M16.043,44.195L80.801,44.195L28.409,82.266L48.419,20.671L68.429,82.266L16.043,44.195Z" style="fill:white;fill-rule:nonzero;"/>
                </g>
            </g>
            <g id="hrow1" transform="matrix(1,0,0,1,378.947,0)">
                <path id="St4" d="M16.043,44.195L80.801,44.195L28.409,82.266L48.419,20.671L68.429,82.266L16.043,44.195Z" style="fill:white;fill-rule:nonzero;"/>
                <g id="St5" transform="matrix(1,0,0,1,94.7368,0)">
                    <path d="M16.043,44.195L80.801,44.195L28.409,82.266L48.419,20.671L68.429,82.266L16.043,44.195Z" style="fill:white;fill-rule:nonzero;"/>
                </g>
                <g id="St6" transform="matrix(1,0,0,1,189.474,0)">
                    <path d="M16.043,44.195L80.801,44.195L28.409,82.266L48.419,20.671L68.429,82.266L16.043,44.195Z" style="fill:white;fill-rule:nonzero;"/>
                </g>
                <g id="St7" transform="matrix(1,0,0,1,284.211,0)">
                    <path d="M16.043,44.195L80.801,44.195L28.409,82.266L48.419,20.671L68.429,82.266L16.043,44.195Z" style="fill:white;fill-rule:nonzero;"/>
                </g>
            </g>
        </g>
        <g id="row1" transform="matrix(1,0,0,1,0,87)">
            <g id="hrow2">
                <g id="St10" transform="matrix(1,0,0,1,189.474,0)">
                    <path d="M16.043,44.195L80.801,44.195L28.409,82.266L48.419,20.671L68.429,82.266L16.043,44.195Z" style="fill:white;fill-rule:nonzero;"/>
                </g>
                <g id="St11" transform="matrix(1,0,0,1,284.211,0)">
                    <path d="M16.043,44.195L80.801,44.195L28.409,82.266L48.419,20.671L68.429,82.266L16.043,44.195Z" style="fill:white;fill-rule:nonzero;"/>
                </g>
            </g>
            <g id="hrow3" transform="matrix(1,0,0,1,378.947,0)">
                <path id="St12" d="M16.043,44.195L80.801,44.195L28.409,82.266L48.419,20.671L68.429,82.266L16.043,44.195Z" style="fill:white;fill-rule:nonzero;"/>
                <g id="St13" transform="matrix(1,0,0,1,94.7368,0)">
                    <path d="M16.043,44.195L80.801,44.195L28.409,82.266L48.419,20.671L68.429,82.266L16.043,44.195Z" style="fill:white;fill-rule:nonzero;"/>
                </g>
                <g id="St14" transform="matrix(1,0,0,1,189.474,0)">
                    <path d="M16.043,44.195L80.801,44.195L28.409,82.266L48.419,20.671L68.429,82.266L16.043,44.195Z" style="fill:white;fill-rule:nonzero;"/>
                </g>
                <g id="St15" transform="matrix(1,0,0,1,284.211,0)">
                    <path d="M16.043,44.195L80.801,44.195L28.409,82.266L48.419,20.671L68.429,82.266L16.043,44.195Z" style="fill:white;fill-rule:nonzero;"/>
                </g>
            </g>
        </g>
        <g id="row2" transform="matrix(1,0,0,1,0,174)">
            <g id="hrow4">
                <g id="St18" transform="matrix(1,0,0,1,189.474,0)">
                    <path d="M16.043,44.195L80.801,44.195L28.409,82.266L48.419,20.671L68.429,82.266L16.043,44.195Z" style="fill:white;fill-rule:nonzero;"/>
                </g>
                <g id="St19" transform="matrix(1,0,0,1,284.211,0)">
                    <path d="M16.043,44.195L80.801,44.195L28.409,82.266L48.419,20.671L68.429,82.266L16.043,44.195Z" style="fill:white;fill-rule:nonzero;"/>
                </g>
            </g>
            <g id="hrow5" transform="matrix(1,0,0,1,378.947,0)">
                <path id="St20" d="M16.043,44.195L80.801,44.195L28.409,82.266L48.419,20.671L68.429,82.266L16.043,44.195Z" style="fill:white;fill-rule:nonzero;"/>
                <g id="St21" transform="matrix(1,0,0,1,94.7368,0)">
                    <path d="M16.043,44.195L80.801,44.195L28.409,82.266L48.419,20.671L68.429,82.266L16.043,44.195Z" style="fill:white;fill-rule:nonzero;"/>
                </g>
                <g id="St22" transform="matrix(1,0,0,1,189.474,0)">
                    <path d="M16.043,44.195L80.801,44.195L28.409,82.266L48.419,20.671L68.429,82.266L16.043,44.195Z" style="fill:white;fill-rule:nonzero;"/>
                </g>
                <g id="St23" transform="matrix(1,0,0,1,284.211,0)">
                    <path d="M16.043,44.195L80.801,44.195L28.409,82.266L48.419,20.671L68.429,82.266L16.043,44.195Z" style="fill:white;fill-rule:nonzero;"/>
                </g>
            </g>
        </g>
        <g id="row3" transform="matrix(1,0,0,1,0,261)">
            <g id="hrow6">
                <g id="St26" transform="matrix(1,0,0,1,189.474,0)">
                    <path d="M16.043,44.195L80.801,44.195L28.409,82.266L48.419,20.671L68.429,82.266L16.043,44.195Z" style="fill:white;fill-rule:nonzero;"/>
                </g>
                <g id="St27" transform="matrix(1,0,0,1,284.211,0)">
                    <path d="M16.043,44.195L80.801,44.195L28.409,82.266L48.419,20.671L68.429,82.266L16.043,44.195Z" style="fill:white;fill-rule:nonzero;"/>
                </g>
            </g>
            <g id="hrow7" transform="matrix(1,0,0,1,378.947,0)">
                <path id="St28" d="M16.043,44.195L80.801,44.195L28.409,82.266L48.419,20.671L68.429,82.266L16.043,44.195Z" style="fill:white;fill-rule:nonzero;"/>
                <g id="St29" transform="matrix(1,0,0,1,94.7368,0)">
                    <path d="M16.043,44.195L80.801,44.195L28.409,82.266L48.419,20.671L68.429,82.266L16.043,44.195Z" style="fill:white;fill-rule:nonzero;"/>
                </g>
                <g id="St30" transform="matrix(1,0,0,1,189.474,0)">
                    <path d="M16.043,44.195L80.801,44.195L28.409,82.266L48.419,20.671L68.429,82.266L16.043,44.195Z" style="fill:white;fill-rule:nonzero;"/>
                </g>
                <g id="St31" transform="matrix(1,0,0,1,284.211,0)">
                    <path d="M16.043,44.195L80.801,44.195L28.409,82.266L48.419,20.671L68.429,82.266L16.043,44.195Z" style="fill:white;fill-rule:nonzero;"/>
                </g>
            </g>
        </g>
        <g id="row4" transform="matrix(1,0,0,1,0,348)">
            <g id="hrow8">
                <g id="St34" transform="matrix(1,0,0,1,189.474,0)">
                    <path d="M16.043,44.195L80.801,44.195L28.409,82.266L48.419,20.671L68.429,82.266L16.043,44.195Z" style="fill:white;fill-rule:nonzero;"/>
                </g>
                <g id="St35" transform="matrix(1,0,0,1,284.211,0)">
                    <path d="M16.043,44.195L80.801,44.195L28.409,82.266L48.419,20.671L68.429,82.266L16.043,44.195Z" style="fill:white;fill-rule:nonzero;"/>
                </g>
            </g>
            <g id="hrow9" transform="matrix(1,0,0,1,378.947,0)">
                <path id="St36" d="M16.043,44.195L80.801,44.195L28.409,82.266L48.419,20.671L68.429,82.266L16.043,44.195Z" style="fill:white;fill-rule:nonzero;"/>
                <g id="St37" transform="matrix(1,0,0,1,94.7368,0)">
                    <path d="M16.043,44.195L80.801,44.195L28.409,82.266L48.419,20.671L68.429,82.266L16.043,44.195Z" style="fill:white;fill-rule:nonzero;"/>
                </g>
                <g id="St38" transform="matrix(1,0,0,1,189.474,0)">
                    <path d="M16.043,44.195L80.801,44.195L28.409,82.266L48.419,20.671L68.429,82.266L16.043,44.195Z" style="fill:white;fill-rule:nonzero;"/>
                </g>
                <g id="St39" transform="matrix(1,0,0,1,284.211,0)">
                    <path d="M16.043,44.195L80.801,44.195L28.409,82.266L48.419,20.671L68.429,82.266L16.043,44.195Z" style="fill:white;fill-rule:nonzero;"/>
                </g>
            </g>
        </g>
        <g id="row5" transform="matrix(1,0,0,1,0,435)">
            <g id="hrow10">
                <g id="St42" transform="matrix(1,0,0,1,189.474,0)">
                    <path d="M16.043,44.195L80.801,44.195L28.409,82.266L48.419,20.671L68.429,82.266L16.043,44.195Z" style="fill:white;fill-rule:nonzero;"/>
                </g>
                <g id="St43" transform="matrix(1,0,0,1,284.211,0)">
                    <path d="M16.043,44.195L80.801,44.195L28.409,82.266L48.419,20.671L68.429,82.266L16.043,44.195Z" style="fill:white;fill-rule:nonzero;"/>
                </g>
            </g>
            <g id="hrow11" transform="matrix(1,0,0,1,378.947,0)">
                <path id="St44" d="M16.043,44.195L80.801,44.195L28.409,82.266L48.419,20.671L68.429,82.266L16.043,44.195Z" style="fill:white;fill-rule:nonzero;"/>
                <g id="St45" transform="matrix(1,0,0,1,94.7368,0)">
                    <path d="M16.043,44.195L80.801,44.195L28.409,82.266L48.419,20.671L68.429,82.266L16.043,44.195Z" style="fill:white;fill-rule:nonzero;"/>
                </g>
                <g id="St46" transform="matrix(1,0,0,1,189.474,0)">
                    <path d="M16.043,44.195L80.801,44.195L28.409,82.266L48.419,20.671L68.429,82.266L16.043,44.195Z" style="fill:white;fill-rule:nonzero;"/>
                </g>
                <g id="St47" transform="matrix(1,0,0,1,284.211,0)">
                    <path d="M16.043,44.195L80.801,44.195L28.409,82.266L48.419,20.671L68.429,82.266L16.043,44.195Z" style="fill:white;fill-rule:nonzero;"/>
                </g>
            </g>
        </g>
    </g>
</svg>
